<?xml version="1.0" encoding="utf-8"?>
<!-- Generator: Adobe Illustrator 23.0.6, SVG Export Plug-In . SVG Version: 6.00 Build 0)  -->
<svg version="1.1" id="Calque_1" xmlns="http://www.w3.org/2000/svg" xmlns:xlink="http://www.w3.org/1999/xlink" x="0px" y="0px"
	 viewBox="0 0 512.4 330.7" style="enable-background:new 0 0 512.4 330.7;" xml:space="preserve">
<style type="text/css">
	.st0{clip-path:url(#SVGID_2_);}
	.st1{clip-path:url(#SVGID_4_);fill:#FFFFFF;}
	.st2{clip-path:url(#SVGID_2_);fill:#FFFFFF;}
	.st3{clip-path:url(#SVGID_6_);fill:#FFFFFF;}
	.st4{fill:#FFFFFF;}
	.st5{font-family:'SourceCodePro-Regular';}
	.st6{font-size:21px;}
	.st7{letter-spacing:3;}
	.st8{letter-spacing:-2;}
	.st9{clip-path:url(#SVGID_8_);}
	.st10{clip-path:url(#SVGID_10_);}
	.st11{font-family:'Nunito-Light';}
	.st12{font-size:8px;}
	.st13{font-size:10px;}
	.st14{letter-spacing:1;}
	.st15{opacity:8.000180e-02;clip-path:url(#SVGID_12_);}
	.st16{clip-path:url(#SVGID_14_);}
	.st17{clip-path:url(#SVGID_16_);}
	.st18{clip-path:url(#SVGID_12_);}
	.st19{clip-path:url(#SVGID_12_);fill:#FFFFFF;}
	.st20{clip-path:url(#SVGID_10_);fill:#FFFFFF;}
	.st21{clip-path:url(#SVGID_20_);fill:#FFFFFF;}
	.st22{fill:none;stroke:#000000;stroke-miterlimit:10;}
</style>
<g>
	<g>
		<defs>
			<rect id="SVGID_1_" x="83.8" y="42.6" width="155.9" height="240.9"/>
		</defs>
		<clipPath id="SVGID_2_">
			<use xlink:href="#SVGID_1_"  style="overflow:visible;"/>
		</clipPath>
		<rect x="83.8" y="42.6" class="st0" width="155.9" height="240.9"/>
		<g class="st0">
			<defs>
				<rect id="SVGID_3_" x="83.8" y="42.6" width="155.9" height="240.9"/>
			</defs>
			<clipPath id="SVGID_4_">
				<use xlink:href="#SVGID_3_"  style="overflow:visible;"/>
			</clipPath>
			<path class="st1" d="M197.6,63.2c-0.1,0-0.2,0-0.3,0.1c-6,1.4-12.1,2.8-18.1,4.2c-0.3,0.1-0.4,0.2-0.4,0.5c0,14.9,0,29.8,0,44.7
				c0,0.5,0,0.5,0.5,0.6c5.6,1,11.1,2.1,16.7,3.1c0.5,0.1,1,0.2,1.5,0.3V63.2z M203,122h-0.3c-1.7,0-3.4,0-5,0
				c-0.6,0-1.2-0.2-1.8-0.3c-4.5-0.8-9-1.7-13.6-2.5c-2.2-0.4-4.3-0.8-6.5-1.2c-0.6-0.1-1.2-0.2-1.8-0.3c-0.1,0-0.2,0-0.4-0.1v-0.4
				c0-17.8,0-35.7,0-53.5c0-0.3,0.1-0.4,0.3-0.4c7.6-1.8,15.3-3.6,22.9-5.4c0.4-0.1,0.9-0.1,1.3-0.1c1.5,0,3.1,0,4.6,0h0.3V122z"/>
		</g>
		<polygon class="st2" points="216.3,68.4 208.4,68.4 208.4,63.1 221.7,63.1 221.7,116.6 208.4,116.6 208.4,111.3 216.3,111.3 		"/>
		<g class="st0">
			<defs>
				<rect id="SVGID_5_" x="83.8" y="42.6" width="155.9" height="240.9"/>
			</defs>
			<clipPath id="SVGID_6_">
				<use xlink:href="#SVGID_5_"  style="overflow:visible;"/>
			</clipPath>
			<path class="st3" d="M194.1,91.7h-4.7c-0.9,0-1.7-0.8-1.7-1.7v-0.3c0-0.9,0.8-1.7,1.7-1.7h4.7c0.9,0,1.7,0.8,1.7,1.7V90
				C195.8,90.9,195,91.7,194.1,91.7"/>
		</g>
		<g class="st0">
			<text transform="matrix(-6.123234e-17 -1 1 -6.123234e-17 113.6903 269.3714)"><tspan x="0" y="0" class="st4 st5 st6 st7">WISCOUR</tspan><tspan x="113.2" y="0" class="st4 st5 st6">S </tspan></text>
		</g>
		<g class="st0">
			<text transform="matrix(-6.123234e-17 -1 1 -6.123234e-17 139.6902 269.3714)"><tspan x="0" y="0" class="st4 st5 st6 st7">&amp;</tspan><tspan x="16.2" y="0" class="st4 st5 st6 st8"> </tspan><tspan x="26.1" y="0" class="st4 st5 st6 st7">FIL</tspan><tspan x="74.6" y="0" class="st4 st5 st6">S</tspan></text>
		</g>
	</g>
</g>
<g>
	<g>
		<defs>
			<rect id="SVGID_7_" x="259.7" y="42.6" width="155.9" height="240.9"/>
		</defs>
		<clipPath id="SVGID_8_">
			<use xlink:href="#SVGID_7_"  style="overflow:visible;"/>
		</clipPath>
		<g class="st9">
			<defs>
				<rect id="SVGID_9_" x="259.7" y="42.6" width="155.9" height="240.9"/>
			</defs>
			<clipPath id="SVGID_10_">
				<use xlink:href="#SVGID_9_"  style="overflow:visible;"/>
			</clipPath>
			<g class="st10">
				<text transform="matrix(1 0 0 1 301.9789 179.9472)"><tspan x="0" y="0" class="st11 st12">29 rue de Lama</tspan><tspan x="55.2" y="0" class="st11 st12">r</tspan><tspan x="58.2" y="0" class="st11 st12">tine </tspan></text>
			</g>
			<g class="st10">
				<text transform="matrix(1 0 0 1 286.7108 189.5473)"><tspan x="0" y="0" class="st11 st12">F</tspan><tspan x="4.4" y="0" class="st11 st12">-54860 Haucou</tspan><tspan x="61" y="0" class="st11 st12">r</tspan><tspan x="64" y="0" class="st11 st12">t</tspan><tspan x="66.5" y="0" class="st11 st12">-Moulaine</tspan></text>
			</g>
			<g class="st10">
				<text transform="matrix(1 0 0 1 293.0824 204.8164)"><tspan x="0" y="0" class="st11 st12">T</tspan><tspan x="4.1" y="0" class="st11 st12">el: 0033(3) 82 24 36 18</tspan></text>
			</g>
			<g class="st10">
				<text transform="matrix(1 0 0 1 276.5067 229.686)"><tspan x="0" y="0" class="st11 st12">F</tspan><tspan x="4.4" y="0" class="st11 st12">enêt</tspan><tspan x="19.9" y="0" class="st11 st12">r</tspan><tspan x="22.5" y="0" class="st11 st12">e</tspan><tspan x="26.7" y="0" class="st11 st12">s</tspan><tspan x="30.5" y="0" class="st11 st12">, </tspan><tspan x="34.3" y="0" class="st11 st12">v</tspan><tspan x="38.3" y="0" class="st11 st12">olet</tspan><tspan x="51.3" y="0" class="st11 st12">s</tspan><tspan x="55.1" y="0" class="st11 st12">, po</tspan><tspan x="67.8" y="0" class="st11 st12">r</tspan><tspan x="70.8" y="0" class="st11 st12">tes </tspan><tspan x="83.4" y="0" class="st11 st12">e</tspan><tspan x="87.6" y="0" class="st11 st12">xtérieu</tspan><tspan x="111.6" y="0" class="st11 st12">r</tspan><tspan x="114.2" y="0" class="st11 st12">es</tspan></text>
			</g>
			<g class="st10">
				<text transform="matrix(1 0 0 1 280.7264 265.5327)"><tspan x="0" y="0" class="st5 st13 st14">WISCOURS &amp; FIL</tspan><tspan x="107.8" y="0" class="st5 st13">S</tspan></text>
			</g>
			<g class="st10">
				<defs>
					<rect id="SVGID_11_" x="259.7" y="42.6" width="155.9" height="240.9"/>
				</defs>
				<clipPath id="SVGID_12_">
					<use xlink:href="#SVGID_11_"  style="overflow:visible;"/>
				</clipPath>
				<g class="st15">
					<g>
						<defs>
							<rect id="SVGID_13_" x="173.3" y="0" width="370.8" height="373.1"/>
						</defs>
						<clipPath id="SVGID_14_">
							<use xlink:href="#SVGID_13_"  style="overflow:visible;"/>
						</clipPath>
						<g class="st16">
							<defs>
								
									<rect id="SVGID_15_" x="203.3" y="55.9" transform="matrix(0.3927 -0.9197 0.9197 0.3927 48.071 416.131)" width="271.6" height="231.6"/>
							</defs>
							<clipPath id="SVGID_16_">
								<use xlink:href="#SVGID_15_"  style="overflow:visible;"/>
							</clipPath>
							<g class="st17">
								<defs>
									
										<rect id="SVGID_17_" x="203.3" y="55.9" transform="matrix(0.3927 -0.9197 0.9197 0.3927 48.0708 416.1304)" width="271.6" height="231.6"/>
								</defs>
								<clipPath id="SVGID_18_">
									<use xlink:href="#SVGID_17_"  style="overflow:visible;"/>
								</clipPath>
								<g transform="matrix(1 0 0 1 0 3.695488e-06)" style="clip-path:url(#SVGID_18_);">
									
										<image style="overflow:visible;" width="272" height="319" xlink:href="16F1F144.jpg"  transform="matrix(0.7831 0.3344 -0.3344 0.7831 285.9748 1.285)">
									</image>
								</g>
							</g>
						</g>
					</g>
				</g>
				<path class="st18" d="M337.6,149.8c25.5,0,46.1-20.7,46.1-46.1s-20.7-46.1-46.1-46.1c-25.5,0-46.1,20.7-46.1,46.1
					S312.1,149.8,337.6,149.8"/>
				<path class="st19" d="M337.6,82.7c-0.1,0-0.2,0-0.2,0c-4.8,1.1-9.5,2.2-14.3,3.3c-0.2,0.1-0.3,0.1-0.3,0.4c0,11.8,0,23.5,0,35.2
					c0,0.4,0,0.4,0.4,0.5c4.4,0.8,8.8,1.6,13.2,2.5c0.4,0.1,0.8,0.1,1.2,0.2V82.7z M341.8,129h-0.3c-1.3,0-2.6,0-4,0
					c-0.5,0-1-0.2-1.5-0.3c-3.6-0.7-7.1-1.3-10.7-2c-1.7-0.3-3.4-0.6-5.1-1c-0.5-0.1-0.9-0.1-1.4-0.2c-0.1,0-0.2,0-0.3-0.1v-0.3
					c0-14.1,0-28.1,0-42.2c0-0.2,0.1-0.3,0.3-0.3c6-1.4,12-2.8,18-4.2c0.3-0.1,0.7-0.1,1-0.1c1.2,0,2.4,0,3.6,0h0.3V129z"/>
			</g>
			<polygon class="st20" points="352.4,86.8 346.1,86.8 346.1,82.6 356.6,82.6 356.6,124.8 346.1,124.8 346.1,120.6 352.4,120.6 			
				"/>
			<g class="st10">
				<defs>
					<rect id="SVGID_19_" x="259.7" y="42.6" width="155.9" height="240.9"/>
				</defs>
				<clipPath id="SVGID_20_">
					<use xlink:href="#SVGID_19_"  style="overflow:visible;"/>
				</clipPath>
				<path class="st21" d="M334.9,105.1h-3.7c-0.7,0-1.3-0.6-1.3-1.3v-0.2c0-0.7,0.6-1.3,1.3-1.3h3.7c0.7,0,1.3,0.6,1.3,1.3v0.2
					C336.2,104.5,335.6,105.1,334.9,105.1"/>
			</g>
		</g>
	</g>
</g>
<rect x="259.7" y="42.6" class="st22" width="155.9" height="240.9"/>
</svg>
